/* XPM */
static const char *water_tile_96[] = {
/* columns rows colors chars-per-pixel */
"96 96 10 1 ",
"  c #01275B",
". c #01275C",
"X c #01285A",
"o c #01285C",
"O c #032C5E",
"+ c #012A60",
"@ c #022C60",
"# c #042D60",
"$ c #022E64",
"% c #043063",
/* pixels */
"XXooXooooooooooooooooooooooooooooooo+ooooooooXoo+oooooooooooooooooooooooooo..ooooooooooooooooooo",
"    XXooooooXoooooooooooooooooooooooooooooooooooooooXoooooXoooooo oooooooooooooooo@@oooooooooooo",
"    XoooooooXXooooooooooooooooooooooooooooooooooooooooooooXXoooooXooooooooooooOO@@@@@ooooooooooo",
"    Xooooooo XoooOOOooooooooooooooooooooooooooOoooooooooooooooooooooooooooooooOO@@@@@ooo+ooooooo",
"  XXoooooooooXoo@@@OoooooooooooooXoO@@oo@OooooOooooooooooooooXooooooooooooOOoooooo@@@@oooooooo+o",
"  XooooooooooXooooooooooooooooo oXoooooo@@ooooooooooooooooooooooooooooooooooooooooooooooooooooo+",
" oooooooooooXX XooooooooooooooXXXooooOOOOoooooOOoooooooooooooooooooooooooooooooooooooooooooooooo",
"oooooooooXooXX oooooooooooooooXoooooooooooooooOOoooooooooooooooooooooooooooooooo  oooooooooooooo",
"oooooooooooooooooooooooooooXXXXXXXoooooooooooooOOOooooooooooooooooooooooooooooooo X.oooo++oooooo",
"ooooooooXXoooooooooX XoooooXX XXXXooXXXXoooooooooooooooooo+oooX oX  Xooooooooooooo+ooooo++oooooo",
"XoXXooXoXoooooooooooXooooooX  XXXooo   Xoooooooooooooooooooooooooooooooooooo++++++++ooooooooo+oo",
"XXX  XoooooooooooXoooooooooooXXoooooo  XXooooooooooooooooooooooooooooooooooo++ooo++++ooooooooooo",
"XooooooooooooooooooooooooooooooXooooooo XXoooooooooooooooXXoooooooooooo+++oo+++oooo+++oooooooooo",
"ooooooooooooooooooooooooooooooooXoooooo XXX  XooooooooooXXXXooooooXooo++++oo+oooooo+@++oooooo.oo",
"ooooo+++oooooooooooooooooooooooooXXXooooX oX  XXooXXXXX   ooooooooXXoooooooooooooooo+++ooooo+ooo",
"oooooooooooooooX ooooooooooo+++ooooXXoooooooo   XXXX      oooooooooX oooooooooooooooooooo++++++o",
"oooooooXoooooo  Xoooooooooo+++oooooooXXooooooo  X     XX  ooooXXXXXoo XooooooooooooooOoooo++@@@+",
"ooooooXXooooooXoooooooooooo+o+ooooooooXoX ooooooXX   Xooo oooo    XooXXooooooooooooooooooo+o@+oo",
"oooooooXooooooooooooooooooooooooooooooooX  ooooooooXXoooooooooo   .oooX oooooooooooooooooooooooo",
"ooooooooooooooooooooooooooooooooooo   XooooXXoooooooooooooooooooo .Xooooooooooooooooooooo@Oooooo",
"OoooooooooooooooooX ooooooooooooooo.   Xoooo ooooXXooooooooooooooooXoooooooooooooooooooo@@OOoooo",
"Ooooooooooooooooo   Xoooo.ooooooooo.    oooooooooooooooXoooooooooooo.oooooooooXXXooooooo@+OOoooo",
"oooooooooXoooooooXXXXoooooooooooooooooX  XXXoooooooooooooooooooooooooooooooXXX  XoooXooooooooooo",
"ooooooooooXooooooXXoooooooooooooooooooo X    oooooooXXooooooooo++@oooooooXX  XoooooooX ooooooooo",
"XXX XooooooooooooXoooooooooooooooooooooXX    XoooXXoXooooooooooo+oo+++oo     Xooooooo   .oooo.oo",
"XX  oooooooooXoooXoooooooooXXoooooooXXoXXX  XXXX   Xooooooooooooooo+@@oo     XXooooXX   .ooooooo",
"   ooooo@@ooXXoooooooX oooooXoooooooX ooooo XXXX  ooooooooo .Xooooooo+ooXooo  XoooXX    oooooooo",
"  ooooooOooooooooooooXXooooXXooooXooooooooooXooooooooo   ooXXoooooooooooooooo  XXooooooooooooooo",
"XoooooooooooooooooooooooooXXooooXooooooXoooooooooooooooooooooooooooooooooooooooooooooooooooooooo",
"ooXXXoooooooooooooooooooooXXooooooooooooooooooooooooooooooooooooX.Xooo++ooooo++ooo++@@@++++ooooo",
"oooXXooo XooOOOOoooooXoooooooooooooooooooooooo+ooooooooooooooXX .. oo++++ooo+++++++@@@@@@+++++++",
"ooo  ooooooooooOoooooXoooooooooooooooooo+++ooo+ooooo  XXoXXX   Xoooooo+++++o++++@@@++o++@@@@@++@",
"ooo  XoooooXoooooooooooOOOOooXXooXoooo++++o+ooooooooooooooXX ooooo+++ooo++++++@$$++oooo++@@@+++@",
"ooX    XooXXXooooooOOOoo@OOoooXXX  ooo+++ooooooooooo@@@++++o++++++++ooo++++++@$$@+oo+++++++++++@",
"o Xo    XXooooooooOOOoooO@OOOoo    Xoooooooooo+++++@@$@@$@@@@@+++oooo+@@@++++@$@$@+@++++oo++++o+",
"Xoooo    XoOOOoooo@@OoXoooooOooX    ooooooooo++++++@@@@@@@@@+ooooooo++@@@@++@@@$$$@@@+oooooooooo",
"oooooXXXXooooooooo@@OoooooOoooooo   ooooooooooooooo+++ooooooooooooo+@@@@+@@@@@@@@+++++oooooooooo",
"oooooXXXoooXooooXXo@oooooooooooooX  ooXXXXooooooooooooooooooooooo+@@@@ooo++@@@++oooooooooooooooo",
"oooooXXXXXXXXXXXXXoooooooooooooooo  XXoXXoooX XXoXXoooooooooooooo++oooooooo+O++ooooooooooooooooo",
"ooXXXXX   XXX   XoooXoXXXXXXXoooooXoooooooooX  XooooooooooooXoooooooooooooo+OOoooooooooooooooooo",
"oooooo          XXXXooX      X XXXooooo@@ooo   XooooooooooooXXXoooXXooooooOO@@Oooooooooooooooooo",
"oooooooooooX    XXXoooX         XXXoo+@OooooooooooooooooooooXooooooooooooooO@@@Ooooooooooooooooo",
"XXXXooooooo.  X   XooX    ..  XXXooooooooooooooooooXXXooooooooooOooooooooooo@@oOOOoOoooooooooooo",
" XXXooooooX. XX   XXX    ...  XXXoooooooooXoooooooXXXXoXoXooooooOOooooooooOOOOooOOOOoooooooooooo",
" Xooooooooooooo        ooooo.  .ooooooooooXXooooooooooXXXXoooooooooOooooooooooooOOoooooooo ooo+@",
" oooooooooooooooX   oX oo+oo. .oooooooooooXXXoooooooooXXXXoooooooOO@OOOOoooooooooOooooooooooooo@",
" ooooooooooooooooooooooo++oooooooooooooooooXXXoXXoooooXXXXooooooOo@OOOOOOOOOooOOoooooooooooooooo",
"  oooooooooooooooooooo++oooooooooooooooooooXXooooXXooXXXXXXXXoooooooooOOO@@@OOOooooooooooooooooo",
"oX XXXXXXooooooooooo+@@@+ooooooooooooooooooXXooooooXXXXXXXXXXoooooooooooOOOOooooooooooooooooo+oo",
"ooXXooooXXXXXXooooo+@@@@+ooooooooooooXooooXXoooooooXXXXX XXooooooXooooooooooooooooooO@Ooooooo@OO",
"ooooooooooXX XXX  o++oooooooXoooooooXXXooooooooooooXXXXX  XooooooXooooooooooooooooooO@@O@ooooO@#",
"XXooooooXXX    X XoooooooooooooXooooooooooooooooooooooooX ooooXoooooooooooooooooooooOo@@+oO@@@@#",
"XXoooooXX  X    XooooOoooooo++ooooooooooooooooooooooooooooooooXoooXXoXXoooooooooooooooo@+OO@@@@#",
"ooooooXX   ooo  ooooooOooooo@oooooooooooooooooooXooooooooooooooooooooo XoooooooXooooooo@@@@@@@@#",
"+oooo      ooooXoooooooooooooooooooooooooooooooooooooooooooooooooooooooXXXXXXXXXoooooooooO@@@@@#",
"@@+ooX    ooooooooooXXoooOoooooooooooooooooooXooooooooooooooooooooooooooXXXXXXXXoooooooooOOO++OO",
"$@@+ooooXoooooooooooooooO@@OoooooOOOoooooooooooooooooooooooooooooooooooooXXXooooooooooooooOoOOoo",
"@++@@++++ooooo++oooXoooooO@OOooooO@@OoooooooooooooooooooooooooooooooooooooXXooooooooOOOooooo@@oo",
"oooo+@@$@@@o++++ooooooooooO@OOooooO@@@OoooooooooooooooooooooooooooooooooooooooooooooO@OoooooOOoO",
"oXXoo++@@+oo++++ooooooooooO@@OoooXoO@@OOoooooooooXooooXXXoooooooooooooooooooooooooooooooooo@Oo+@",
"oooooo+@++@@+++++oooXXXoooooOOoooooo@@@OoooooooXXXXooX  XooooooooooooooooooooooooooXXXoo@@@Ooooo",
"++ooooo+o+@@++o++++ooXXoooXXoooooooo@@OOooooooXXXXXX   XoooooooooooooXXXXXoooooooo X XooOooooooo",
"ooooooooooooooooooooooXXoX XXooooooooOooooooXXX   XX  ooooooooooooooo     ooooooo   oooooooooooo",
"ooooooooooooooooooooooooooXooooooooXXoooooooX  X   oooooooooooooXXXXX XXX  ooooooooooooooooooooo",
"ooooooooooooo@OooooooooooooooXooooooooooooooXXXXX XoooooooooooooXX   XoooooXX   oooooooooo+@@ooo",
"OoOoooooooooO@OOoooooooooooXXXooooooooooooooXooXXXooooooooooooooXX XXXXooooXXXooooOOoooooo@@@@@#",
"O@@@ooooOOoOO@@OO@@OoooooXooXXoooooOooooooooXooXXXoooooooooooooooX XX XXooooooooO@@OOoOOO@@@@@@#",
"O@@@oOoO@OOOO@@O@O@@ooooooooooXooOoOoooooooXXXXXXoooooooooooX Xooo  XXXXoooooooO@@OoOoO@O@@@@@@#",
"OOOOOOOO@@OOOOOO@@O@@OoXooooXXoooOOOooooooXXXooXXooooooooooo  oXXX  XXoooooooooo@@OooooOoo@@@@%%",
"OoOooooO@@OOOOOO@@OO@OooooooXXoooOOoooooooXXoooooooooooXoXXX ..XX   XooooooooooooOooooooooOO@@@%",
"OOoooooOOOOoOOOO@OOOO@@OooooXXoooOoooooooooooXXXoooooooXX XX  .oooooooXXooooooooooooooooooooO@@#",
"OOooooooooooooooOOOOO@@@OoooooooooOoooooXXXoXXXXXooooooX  ooooooooooooXXoooooooooooooooooooooooo",
"ooooooooooOOoooooooOOO@@@OOoooooooooooooooooooooooooooooXooo+oooooooooooooooXooooooooooooooooooo",
"ooooooooooOOooooooooOOOOOOOOoooooXoooooooooooOOoooooooooooooooooooooooooooooooooooooo.ooooooooo ",
"ooooooooooooooooooooOOoooOOoOOOoXXXXXXXXooOOOOOOOoooooooooooooo+++oooooooooooooooooooooooooooo  ",
"ooooooooooooooooooooooooooOoOooooXXooo XoooOOO@@OooooooooooXooo++ooooo++++++@+oooooooooo++++oooo",
"OoooooooooXXooooooooooooooOOoooooooooooXXooooOOOOOooooooooXXoo+++oooo++@@@++++ooooooo+o++++oooo+",
"@OoooooXooooooooooXooooooooooooooooooooooooooooOOOooo Xooooooooo+oooOoO@@@+ooooooooooo+ooooooo+@",
"OOooooXXXooooooooooXXooooooooXooooooooooooooooooOOOoX  o+ooooooo+ooooo@@@@oooooooooooooo. .o+++@",
"oooooooooooooooooooXXXooooooXXXXooooOoooooooooooOOoo  oooooooooooooooo+@Ooooooooooooooooooo+@+oo",
"ooOOooooooooooooXXXooXooooooXX   oooooooooooooXoooooooooooooooOoooooooooooooooooooo+++ooo++@@++o",
"oo@OooooooooooXX  XXoooooXXXoo   oooooooooooXXXXXoooooooooooo+Oooooooooooooooooooo+++++++@@@@++o",
"oooOooooooooXXX    XXoooX   oXoX XooooooooooX  XXXoooooo@@ooooooooO@oooooooooooooooo++++++@@+++o",
"oooooooooooo      XXoooX  oo  XX XoooooooooX   XXXoooooo@@@ooooooooooooooo++o+oooXoooo+oo++++++o",
"oooooooXoooX      Xoooo  ooooooo XooooooooX     XooooooOOOOoooooo++oooooo+++ooooooooooooo++ooo+@",
"oXXXooXX XX   X   XoooX Xooooooooooooooooo       oooooooooooooo+@@+ooooooooooooo++oooooo+++ooo@@",
"XXoXXXX     XXXX  XXXX  Xoooooooooooooooo  X    oooooooooooooo@@@+oooXoooooooooo+o+oo++@@@++o++@",
"XoooX        XXoooXXX XXooooooooooooooXXXXooooooooooooo+o+oo+@@@oooooooo.Xoooooooooo++$$$@++++@@",
" oooo         XooooX  X XooXXXXXoooXX   ooooooooooooo+++++@@@@@+o ooo++o.oo. X Xooo+@@@@@oo++@@@",
"X Xoooo       XoooXX     ooX XXXooo     oooooooo++oo++@@++@$@+oooooo+++ooX.. ooo+++@@@@+ooo+@@oo",
"oX   ooo    XooooX   X  Xoo   Xooooo   Xooooooo++@@@@@@+++@@+o   ooo+++ooooooo++@@@+++oooo++++o+",
"oo    oo    ooooX    X  ooXXXoooooooooooooooooo+@@@@@@@++@@+oX    Xooooooooo+++++@++ooooo++++++@",
"oo   Xooo    ooo        XX  ooooooooo+++oooo+++@@@@@@@@@@@+oo ooo..oooooooooooooo+oooooo@$$@@@@@",
"oX Xooooo.                  XooooXoo++++ooo+@@@@@++@@@$$@@+ooooo+ooXoooooooooooo+ooooooo@@@@@@@@",
"o  Xooooo   XX              Xooooooo++ooo++@@@@@oo+@@@@++++++++++oooooooooooooo@@@oooo@@@@oooooo",
"o. XXoooX  Xooo          XooooXXXooooooo+@@@+++ooo++++ooo+o+@@+oooooooooooooooO@@@@oo+@@@@oooooo"
};
